PathFileType	4	(x/y/z)	S09_BK_Cal_T01
DataRate	CameraRate	NumFrames	NumMarkers	Units	OrigDataRate	OrigDataStartFrame	OrigNumFrames
240	240	5	51	mm	240	601	2400
Frame#	Time	Sternum			R.Acromium			L.Acromium			Top.Head			R.ASIS			L.ASIS			R.PSIS			L.PSIS			R.Great.Tro			L.Great.Tro			R.Iliac.Crest			L.Iliac.Crest			V.Sacral			R.Thigh.Upper.Post			R.Thigh.Lower.Ant			R.Thigh.Lower.Post			R.Thigh.Upper.Ant			R.Knee.Lat			R.Knee.Med			R.Shank.Upper.Post			R.Shank.Lower.Ant			R.Shank.Lower.Post			R.Shank.Upper.Ant			R.Ankle.Lat			R.Ankle.Med			R.Heel.Upper			R.Heel.Med			R.Heel.Lat			R.Toe.Lat			R.Toe.Med			R.Toe.Tip			L.Thigh.Upper.Post			L.Thigh.Lower.Ant			L.Thigh.Lower.Post			L.Thigh.Upper.Ant			L.Knee.Lat			L.Knee.Med			L.Shank.Upper.Post			L.Shank.Lower.Ant			L.Shank.Lower.Post			L.Shank.Upper.Ant			L.Ankle.Lat			L.Ankle.Med			L.Heel.Upper			L.Heel.Med			L.Heel.Lat			L.Toe.Lat			L.Toe.Med			L.Toe.Tip			Cervical.Spine			Back			
		X1	Y1	Z1	X2	Y2	Z2	X3	Y3	Z3	X4	Y4	Z4	X5	Y5	Z5	X6	Y6	Z6	X7	Y7	Z7	X8	Y8	Z8	X9	Y9	Z9	X10	Y10	Z10	X11	Y11	Z11	X12	Y12	Z12	X13	Y13	Z13	X14	Y14	Z14	X15	Y15	Z15	X16	Y16	Z16	X17	Y17	Z17	X18	Y18	Z18	X19	Y19	Z19	X20	Y20	Z20	X21	Y21	Z21	X22	Y22	Z22	X23	Y23	Z23	X24	Y24	Z24	X25	Y25	Z25	X26	Y26	Z26	X27	Y27	Z27	X28	Y28	Z28	X29	Y29	Z29	X30	Y30	Z30	X31	Y31	Z31	X32	Y32	Z32	X33	Y33	Z33	X34	Y34	Z34	X35	Y35	Z35	X36	Y36	Z36	X37	Y37	Z37	X38	Y38	Z38	X39	Y39	Z39	X40	Y40	Z40	X41	Y41	Z41	X42	Y42	Z42	X43	Y43	Z43	X44	Y44	Z44	X45	Y45	Z45	X46	Y46	Z46	X47	Y47	Z47	X48	Y48	Z48	X49	Y49	Z49	X50	Y50	Z50	X51	Y51	Z51	

601	2.5	571.41	1099	291.34	466.2	1367.6	438.17	476.38	1365.5	123.27	532.6	1667.8	290.94	465.39	942.85	396.53	466.73	940.93	151.5	253.86	1005.1	318.65	260.68	1005.7	228.25	377.78	877.47	472.35	389.66	871.77	81.095	397.8	1037.7	436.47	391.16	1050.5	115.01	232.59	972.87	269.95	462.97	642.42	463.86	570.2	576.44	432.57	493.22	555.52	437.13	533.78	656.88	457.1	573.74	492.73	422.77	571.45	481.75	300.84	466.3	343.69	432.43	512.46	265.49	420.18	440.5	271.8	424.23	531.46	336.75	429.33	397.27	96.038	406.97	431.52	100.68	322.14	333.29	77.456	358.65	342.9	44.638	330.82	334.59	48.501	395.65	492.46	40.761	453.17	542.43	44.394	348.01	589.29	59.888	395.17	425.21	608.72	117.85	538.73	551.21	108.38	477.33	533.55	135.47	490.58	623.87	86.742	551.54	475.62	118.65	579.03	491.07	249.55	482.14	369.48	105.76	516.93	265.06	116.7	460.43	295.77	109.81	538.59	340.47	112.58	412.66	107.47	131.39	426.15	93.98	224.9	336.79	71.094	175.86	347.35	45.989	208.67	337.92	43.776	147.23	511.56	43.937	95.065	547.51	42.51	203.78	599.9	59.614	146.59	400.41	1423.9	289.79	312.99	1176.4	269.66
602	2.5042	571.39	1099.1	291.36	466.13	1367.6	438.2	476.28	1365.5	123.29	532.49	1667.8	290.96	465.31	942.86	396.56	466.66	940.94	151.53	253.79	1005.1	318.7	260.61	1005.7	228.3	377.72	877.46	472.39	389.58	871.78	81.126	397.72	1037.7	436.5	391.09	1050.5	115.05	232.52	972.85	269.99	462.92	642.42	463.88	570.15	576.45	432.58	493.16	555.52	437.14	533.73	656.88	457.12	573.7	492.74	422.79	571.42	481.76	300.86	466.27	343.69	432.45	512.44	265.49	420.19	440.48	271.8	424.25	531.43	336.75	429.34	397.28	96.026	406.98	431.51	100.69	322.14	333.29	77.452	358.65	342.9	44.634	330.82	334.58	48.495	395.65	492.45	40.763	453.17	542.43	44.403	348.01	589.29	59.901	395.17	425.16	608.73	117.88	538.68	551.22	108.4	477.28	533.56	135.5	490.53	623.88	86.769	551.5	475.64	118.67	578.99	491.08	249.58	482.1	369.49	105.78	516.9	265.08	116.71	460.41	295.78	109.81	538.56	340.49	112.6	412.65	107.46	131.39	426.14	93.985	224.9	336.79	71.089	175.86	347.34	45.988	208.67	337.91	43.766	147.22	511.56	43.942	95.063	547.5	42.524	203.78	599.89	59.638	146.59	400.32	1423.9	289.83	312.92	1176.4	269.71
603	2.5083	571.37	1099.1	291.38	466.06	1367.6	438.24	476.18	1365.5	123.31	532.38	1667.8	290.98	465.24	942.87	396.59	466.58	940.95	151.56	253.72	1005	318.74	260.53	1005.6	228.34	377.66	877.45	472.42	389.5	871.79	81.157	397.65	1037.7	436.54	391.02	1050.5	115.1	232.44	972.84	270.03	462.86	642.41	463.9	570.09	576.45	432.59	493.11	555.51	437.16	533.68	656.88	457.14	573.65	492.75	422.8	571.38	481.78	300.87	466.25	343.69	432.47	512.41	265.49	420.2	440.46	271.8	424.26	531.41	336.76	429.35	397.29	96.013	406.98	431.5	100.7	322.15	333.28	77.448	358.65	342.89	44.63	330.82	334.58	48.489	395.66	492.45	40.766	453.17	542.42	44.413	348.01	589.28	59.915	395.17	425.1	608.74	117.91	538.63	551.24	108.43	477.23	533.57	135.52	490.48	623.9	86.798	551.47	475.67	118.7	578.94	491.09	249.61	482.07	369.51	105.79	516.86	265.11	116.72	460.38	295.79	109.82	538.54	340.52	112.62	412.64	107.46	131.38	426.12	93.991	224.9	336.78	71.084	175.85	347.34	45.986	208.66	337.91	43.757	147.22	511.55	43.948	95.061	547.49	42.539	203.78	599.87	59.663	146.59	400.24	1423.9	289.87	312.86	1176.4	269.75
604	2.5125	571.35	1099.1	291.4	465.99	1367.6	438.27	476.07	1365.5	123.33	532.28	1667.8	291.01	465.16	942.88	396.62	466.5	940.95	151.59	253.64	1005	318.79	260.45	1005.6	228.39	377.59	877.44	472.45	389.43	871.81	81.189	397.58	1037.7	436.57	390.95	1050.6	115.14	232.36	972.82	270.07	462.8	642.4	463.92	570.04	576.46	432.61	493.06	555.51	437.17	533.62	656.88	457.17	573.6	492.76	422.82	571.35	481.79	300.88	466.22	343.7	432.49	512.39	265.49	420.21	440.44	271.8	424.28	531.38	336.77	429.37	397.3	95.998	406.99	431.49	100.7	322.16	333.28	77.443	358.66	342.89	44.625	330.83	334.57	48.481	395.66	492.45	40.768	453.17	542.41	44.425	348.01	589.27	59.93	395.16	425.04	608.74	117.94	538.58	551.26	108.46	477.18	533.59	135.55	490.43	623.91	86.828	551.43	475.69	118.73	578.88	491.11	249.64	482.04	369.52	105.81	516.83	265.14	116.73	460.36	295.8	109.83	538.51	340.54	112.64	412.64	107.45	131.38	426.11	93.997	224.9	336.78	71.079	175.85	347.34	45.985	208.66	337.9	43.748	147.22	511.55	43.954	95.059	547.48	42.553	203.78	599.86	59.689	146.59	400.16	1423.9	289.92	312.8	1176.4	269.8
605	2.5167	571.34	1099.1	291.42	465.93	1367.6	438.3	475.97	1365.5	123.36	532.17	1667.8	291.03	465.08	942.9	396.65	466.42	940.96	151.62	253.57	1005	318.84	260.37	1005.6	228.43	377.52	877.43	472.48	389.35	871.82	81.22	397.5	1037.7	436.6	390.88	1050.6	115.19	232.27	972.81	270.12	462.74	642.4	463.95	569.98	576.46	432.62	493.01	555.51	437.18	533.56	656.88	457.19	573.55	492.77	422.83	571.31	481.81	300.9	466.2	343.7	432.51	512.36	265.49	420.22	440.42	271.8	424.29	531.35	336.78	429.38	397.3	95.983	406.99	431.47	100.71	322.16	333.27	77.437	358.66	342.88	44.62	330.83	334.57	48.473	395.66	492.45	40.77	453.17	542.41	44.438	348	589.26	59.946	395.16	424.98	608.75	117.97	538.53	551.28	108.5	477.13	533.6	135.57	490.38	623.93	86.859	551.39	475.72	118.75	578.83	491.12	249.67	482	369.54	105.83	516.79	265.17	116.74	460.33	295.81	109.84	538.48	340.56	112.67	412.63	107.44	131.38	426.09	94.002	224.91	336.77	71.074	175.84	347.33	45.982	208.66	337.9	43.738	147.22	511.54	43.96	95.058	547.48	42.568	203.78	599.85	59.717	146.59	400.07	1423.9	289.96	312.74	1176.3	269.85
